<?xml version="1.0" encoding="UTF-8" standalone="no"?>
<svg
   xmlns:dc="http://purl.org/dc/elements/1.1/"
   xmlns:cc="http://creativecommons.org/ns#"
   xmlns:rdf="http://www.w3.org/1999/02/22-rdf-syntax-ns#"
   xmlns:svg="http://www.w3.org/2000/svg"
   xmlns="http://www.w3.org/2000/svg"
   xmlns:sodipodi="http://sodipodi.sourceforge.net/DTD/sodipodi-0.dtd"
   xmlns:inkscape="http://www.inkscape.org/namespaces/inkscape"
   version="1.1"
   x="0px"
   y="0px"
   viewBox="0 0 100 100"
   enable-background="new 0 0 100 100"
   xml:space="preserve"
   id="svg2"
   inkscape:version="0.48.4 r9939"
   width="100%"
   height="100%"
   sodipodi:docname="HEALTH.svg"><metadata
     id="metadata14"><rdf:RDF><cc:Work
         rdf:about=""><dc:format>image/svg+xml</dc:format><dc:type
           rdf:resource="http://purl.org/dc/dcmitype/StillImage" /></cc:Work></rdf:RDF></metadata><defs
     id="defs12" /><sodipodi:namedview
     pagecolor="#ffffff"
     bordercolor="#666666"
     borderopacity="1"
     objecttolerance="10"
     gridtolerance="10"
     guidetolerance="10"
     inkscape:pageopacity="0"
     inkscape:pageshadow="2"
     inkscape:window-width="1600"
     inkscape:window-height="838"
     id="namedview10"
     showgrid="false"
     inkscape:zoom="1.888"
     inkscape:cx="50"
     inkscape:cy="168.4322"
     inkscape:window-x="-8"
     inkscape:window-y="-8"
     inkscape:window-maximized="1"
     inkscape:current-layer="svg2" /><g
     id="g4"
     transform="matrix(-1.3797942,0,0,1.4515143,119.51261,-24.457071)"><path
       d="m 85.48,40.11 c 0,0.23 0,0.44 -0.021,0.67 -0.05,1.56 -0.27,3.09 -0.65,4.55 H 63.14 L 58.75,33.19 c -0.46,-1.25 -1.64,-2.08 -2.97,-2.08 -1.33,0 -2.521,0.83 -2.971,2.08 L 45.479,53.44 43.3,47.42 c -0.45,-1.25 -1.67,-2.09 -3,-2.09 H 16.44 c -0.39,-1.46 -0.61,-2.98 -0.66,-4.55 -0.02,-0.11 -0.02,-0.23 -0.02,-0.32 -0.01,-0.12 -0.01,-0.23 -0.01,-0.35 0,-11.38 9.22,-20.61 20.61,-20.61 5.53,0 10.54,2.18 14.26,5.73 3.689,-3.55 8.71,-5.73 14.25,-5.73 11.39,0 20.61,9.23 20.61,20.61 z"
       id="path6"
       inkscape:connector-curvature="0" /><path
       d="m 81.96,51.65 c -0.72,1.06 -1.53,2.04 -2.43,2.949 -0.13,0.16 -0.28,0.32 -0.42,0.471 L 55.72,78.45 c -1.31,1.319 -3.069,2.05 -4.96,2.05 h -0.19 c -1.89,0 -3.67,-0.73 -4.98,-2.07 L 22.68,55.52 c -1.29,-1.14 -2.44,-2.439 -3.4,-3.869 h 18.83 l 4.4,12.14 c 0.45,1.25 1.64,2.09 2.97,2.09 1.33,0 2.52,-0.84 2.97,-2.09 l 7.33,-20.24 2.18,6.02 c 0.45,1.25 1.64,2.081 2.97,2.081 h 21.03 z"
       id="path8"
       inkscape:connector-curvature="0" /></g></svg>